<svg
        xmlns="http://www.w3.org/2000/svg"
        viewBox="0 0 110.897 89.269"
        fill="#000"
>
    <g id="favicon" transform="translate(-2 659.586)">
        <path
                id="Path_2"
                data-name="Path 2"
                d="M167.83-659.391c-.213.137-.837.639-1.384,1.111-.548.456-1.156.943-1.339,1.065a11.823,11.823,0,0,0-1.156.882c-.5.411-4.64,3.073-4.777,3.073a.156.156,0,0,0-.167.152.164.164,0,0,1-.152.152,25.953,25.953,0,0,0-2.48,1.491c-1.263.822-2.358,1.506-2.434,1.521a1.9,1.9,0,0,0-.456.259c-.289.183-.365.38-.4.974a1.561,1.561,0,0,0,.167.943,19.334,19.334,0,0,1,1.491,3.043c0,.076.076.137.183.137.091,0,.122.046.076.091-.061.061.03.289.2.517a2.535,2.535,0,0,1,.3.5,21.753,21.753,0,0,0,1.75,2.784.923.923,0,0,1,.228.35c0,.183.624.806,1.141,1.172.73.487,1.354.35,2.769-.639,1.035-.715.989-.73,1.6.472.213.411.609,1.141.867,1.6.274.456.563,1,.669,1.217a1.507,1.507,0,0,0,.274.456c.046.046.669,1.2,1.384,2.586s1.43,2.754,1.613,3.043c.167.289.456.806.624,1.141a14.309,14.309,0,0,0,.882,1.445,2.264,2.264,0,0,1,.548,1.75,18.112,18.112,0,0,1-.274,2.967c-.046.213-.107.578-.152.837-.046.411-.928,4.686-1.08,5.249-.03.122-.289,1.156-.578,2.282a10.719,10.719,0,0,0-.487,4.488c.076.365.365.609,1.308,1.2a67.6,67.6,0,0,0,7.059,3.53c1.019.35,1.826.167,3.621-.791a1.857,1.857,0,0,1,.761-.213,1.33,1.33,0,0,0,.624-.213,24.168,24.168,0,0,0,1.506-3.53,34.632,34.632,0,0,1,1.369-3.378.334.334,0,0,0,.122-.274,2.5,2.5,0,0,1,.3-.776,2.784,2.784,0,0,0,.3-.761.188.188,0,0,1,.152-.2c.091,0,.152-.091.152-.2a21.6,21.6,0,0,1,1.7-3.469c.076-.046.137-.137.122-.2a2.447,2.447,0,0,1,.456-1,4.175,4.175,0,0,1,.441,1.019c.38,1.126,1.43,3.91,1.78,4.762a2.028,2.028,0,0,1,.183.624c-.03.061.061.228.183.38a3.282,3.282,0,0,1,.441.9c.213.654,1.476,3.606,1.734,4.108a1.868,1.868,0,0,1,.183.38,12.06,12.06,0,0,0,1.628,2.754c.913.639,1.339.669,3.1.228.913-.228,1.826-.456,2.039-.487a19.066,19.066,0,0,0,5.051-1.567,2.241,2.241,0,0,0,.365-1.232c.106-1.035.152-8.124.076-13.708-.046-3-.03-3.347.228-3.8a3.223,3.223,0,0,1,.441-.624c.107-.076.107-.122,0-.122s-.107-.046,0-.122a1.374,1.374,0,0,0,.319-.411c.685-1.248,1.141-2.039,2.008-3.5.548-.928,1.065-1.75,1.126-1.826.289-.335,2.449-3.7,2.815-4.351.35-.669.5-.761,2.13-1.521,1.963-.913,2.084-1.035,3.3-3.423.958-1.887,1.461-3.5,1.248-3.971a19.146,19.146,0,0,0-3.575-2.419,11.226,11.226,0,0,1-1.126-.5c-.578-.259-1.887-.791-2.936-1.156a6.213,6.213,0,0,0-2.8-.609c-1.156.076-1.324.183-2.236,1.248a8.1,8.1,0,0,1-.837.928.219.219,0,0,0-.122.2.722.722,0,0,1-.152.335c-.2.213-1.217,1.613-1.476,2.023-.107.152-.35.533-.548.822-.183.289-.685,1.08-1.1,1.75s-.791,1.248-.837,1.293a3.193,3.193,0,0,0-.3.487c-.122.228-.639,1.08-1.141,1.9s-1,1.658-1.111,1.871c-.213.426-.32.624-1.582,2.845a12.09,12.09,0,0,0-.882,1.7.155.155,0,0,1-.137.167c-.122,0-.243.365-.517,1.628-.091.411-.228.32-.456-.289-.137-.365-.335-.867-.426-1.111-.106-.259-.2-.487-.213-.532s-.137-.335-.274-.669c-.137-.32-.259-.609-.259-.639a4.341,4.341,0,0,0-.183-.472,5.247,5.247,0,0,1-.2-.578,11.857,11.857,0,0,0-.761-2.1,1.221,1.221,0,0,0-.7-.35c-1.171-.167-2.723-.3-4.838-.441-.776-.061-1.567-.137-1.75-.167-.167-.03-.669-.107-1.1-.152-.73-.091-.837-.061-1.232.335a5.706,5.706,0,0,0-.745.974,4.569,4.569,0,0,1-.365.609c-.046.046-.38.715-.761,1.476a6.645,6.645,0,0,1-.791,1.415c-.061,0-.167-.183-.213-.426a10.31,10.31,0,0,0-.456-1.2c-.183-.426-.3-.822-.243-.867.046-.046,0-.091-.091-.091a.208.208,0,0,1-.183-.228,1.176,1.176,0,0,0-.152-.5c-.076-.137-.426-1.019-.776-1.932-.35-.928-.745-1.917-.867-2.206a5.729,5.729,0,0,1-.243-.609c-.015-.091-.38-.989-.639-1.6-.776-1.841-1.187-2.8-1.811-4.336-.4-.958-.806-1.963-.913-2.206-.107-.259-.32-.761-.456-1.141-.152-.38-.35-.9-.456-1.141-.106-.259-.243-.624-.3-.837-.046-.213-.289-1-.533-1.75-.243-.761-.548-1.765-.685-2.252a3.019,3.019,0,0,0-1.643-2.008A1.015,1.015,0,0,0,167.83-659.391Z"
                transform="translate(-128.098)"
        />
        <path
                id="Path_3"
                data-name="Path 3"
                d="M10.444-319.366c-.913.152-2.191.319-2.815.365-1.537.122-2.769.243-3.043.3-.122.015-.563.091-.989.167-.745.106-1.6.456-1.6.624a6.114,6.114,0,0,0,.761,1.126c.456.411,3.94,4.96,5.066,6.618l1.445,2.115-.213.533a9.7,9.7,0,0,1-1.613,2.267.256.256,0,0,0-.122.213,15.937,15.937,0,0,1-1.339,1.78c-.73.882-1.506,1.856-1.719,2.145-.791,1.1-1.035,2.267-.563,2.693.243.228.411.213,2.206-.228,1.08-.243,2.252-.5,2.632-.548a27.142,27.142,0,0,1,3.5-.213c0,.107-.882,2.556-1.05,2.936-.243.533-.837,2.13-.867,2.282a7.857,7.857,0,0,1-.38.974c-.274.669-.3.867-.152,1.111.107.167.319.563.487.882.259.5.441.624,1.476,1,.639.243,1.217.441,1.293.456a.945.945,0,0,1,.152.046c.015.015,1.126.4,2.465.837,2.313.776,2.449.806,2.632.533.122-.152.335-.426.5-.609a1.262,1.262,0,0,0,.289-.5c.015-.091.107.061.243.35.122.289.183.548.137.593a.958.958,0,0,0,.183.5c.274.456.563.593,1.8.913a4.938,4.938,0,0,1,.913.274,1.391,1.391,0,0,0,.38.106,1.621,1.621,0,0,1,.456.091c.228.091,2.084.548,3.21.806a5.093,5.093,0,0,1,.563.137c.137.046.426.107.639.152.213.03.867.183,1.445.319,1.156.274,1.187.289,2.206.472.38.061.715.122.761.137.228.061,1.491.274,1.75.3.167.03.715.122,1.217.2.5.091,1.156.213,1.445.259,1.856.319,2.176.243,3.317-.837a3.355,3.355,0,0,1,.791-.609c.076,0,.289.213.472.472,1.08,1.521,1.689,1.841,4.017,2.039.426.046,1.172.106,1.674.167.913.076,1.232.106,4.184.274,4.29.259,14.347.35,17.42.183,2.541-.152,4.564-.274,5.173-.32.776-.046,2.906-.243,3.5-.3.259-.03.974-.091,1.6-.137.624-.061,1.293-.137,1.476-.167.319-.076,1.126-.183,2.176-.32,1.263-.152,1.385-.167,3.8-.609.7-.137,1.491-.259,1.75-.3a4.9,4.9,0,0,0,1.263-.259,2.369,2.369,0,0,1,.639-.167c.289-.046.7-.122.913-.167.213-.061.563-.122.791-.167s1.384-.35,2.586-.685,2.282-.639,2.4-.654a1.737,1.737,0,0,0,.456-.137c.122-.046,1.156-.4,2.282-.776,3.484-1.156,3.195-.989,3.834-2.176a9.589,9.589,0,0,0,.639-1.461c.061-.335-.183-1.08-.974-2.921a18.67,18.67,0,0,1-.852-3c-.2-1.156-.365-2.191-.365-2.389,0-.167.365-.2,2.176-.107a23.162,23.162,0,0,1,5.705.776c1.674.441,1.765.456,2.054.152.3-.3.183-1.187-.3-2.084a41.8,41.8,0,0,0-3.058-4,18.042,18.042,0,0,1-2.008-2.876l-.274-.609.472-.685c.274-.38.517-.761.563-.852.091-.2,1.263-1.947,1.369-2.054.046-.046.38-.487.761-.989.593-.806,2.875-3.651,3.88-4.838l.365-.411-.335-.228a7.213,7.213,0,0,0-2.16-.593c-.243-.046-.974-.122-1.6-.167s-1.415-.122-1.75-.167c-.335-.03-.943-.107-1.369-.152-.411-.046-.852-.107-.958-.137a20.036,20.036,0,0,0-4.214-.3c-1.963,0-2.16.03-2.48.319a1.683,1.683,0,0,0-.411.639,2.719,2.719,0,0,1-.2.593,12.864,12.864,0,0,0-.639,3.545c0,1.035.076.989-2.434,1.6-1.978.487-2.465.715-2.754,1.248a4.748,4.748,0,0,1-1.248,1.415,1.427,1.427,0,0,1-.183-.609,1.484,1.484,0,0,0-.274-.715,9.873,9.873,0,0,0-3.3.183,42.577,42.577,0,0,1-5.584.609,6.473,6.473,0,0,0-1.248.137c-.456.289-16.477.411-23.369.2-1.75-.061-4.26-.137-5.553-.183s-2.83-.107-3.423-.152c-.578-.03-1.887-.107-2.891-.152s-2.16-.122-2.586-.167c-.411-.046-1.308-.107-1.978-.152-.669-.03-1.613-.091-2.115-.137-.974-.076-2.739-.213-4.047-.3-.456-.03-1.019-.091-1.248-.137a10.583,10.583,0,0,0-1.293-.167c-.487-.03-1.019-.091-1.187-.122a13.386,13.386,0,0,0-1.521-.167c-.669-.061-1.324-.137-1.445-.167-.213-.061-2.526-.487-3.271-.609-.669-.106-1.384-.243-1.6-.3-.122-.03-.4-.091-.609-.137-1.278-.243-3.393-.715-3.514-.791a.894.894,0,0,1-.137-.578,13.123,13.123,0,0,0-.365-2.3,6.022,6.022,0,0,0-.913-2.13c-.274-.274-.532-.3-2.449-.32A24.1,24.1,0,0,0,10.444-319.366Zm12.613,11.335c.228.167.411.776.73,2.313.243,1.156.456,2.206.5,2.328.32,1.308.837,3.545.928,4.032a3.95,3.95,0,0,0,.183.745c.03.061.335-.38.654-.989.685-1.308.837-1.461,1.415-1.567s.761.107,1.476,1.78c.335.761.7,1.613.822,1.856.106.259.289.654.38.9.2.548.335.411.685-.669.152-.456.7-1.871,1.217-3.119.517-1.263,1.126-2.784,1.369-3.393.548-1.415.928-1.734,1.887-1.613,1.278.152,1.445.2,1.734.5.609.609-.167,1.567-1.2,1.491-.411-.03-.456.03-.913,1.263-.259.715-.822,2.145-1.263,3.195s-.822,2.008-.852,2.13c-.167.639-1.293,3.8-1.537,4.29-.715,1.491-1.689.7-2.723-2.176-.867-2.434-1.065-2.906-1.187-2.891a9.008,9.008,0,0,0-.943,1.674c-.822,1.674-1.111,1.993-1.78,1.993-.335,0-1.019-.472-1.05-.73a2.194,2.194,0,0,0-.076-.411c-.03-.167-.091-.578-.137-.913s-.152-.989-.228-1.445-.183-1.1-.243-1.43c-.046-.319-.122-.73-.152-.913-.03-.167-.107-.563-.152-.852a8.668,8.668,0,0,0-.213-.989,23.887,23.887,0,0,1-.517-3.545c-.015-.183-.076-.335-.167-.335-.137,0-.319.137-1.217.882a1.094,1.094,0,0,1-1.08-.137c-.609-.5-.243-1.537.822-2.282C21.992-308.259,22.509-308.442,23.057-308.031Zm70.183,3.514a1.1,1.1,0,0,1,.2.517,15.481,15.481,0,0,1-1.78,3.058.908.908,0,0,1-1.43-.015c-.38-.38-.411-.472-.289-.928.091-.289.152-.533.152-.548,0-.122-.958.2-1.476.5-.974.563-2.039,2.008-1.521,2.054.106.015.4.046.639.076.259.015.806.076,1.217.122a4.631,4.631,0,0,1,3.408,1.552,4.134,4.134,0,0,1,.776,4.306,5.114,5.114,0,0,1-2.556,2.3,5.838,5.838,0,0,1-3,.274c-.243-.076-.517-.152-.609-.167a1.342,1.342,0,0,1-.3-.137,3.894,3.894,0,0,0-.7-.2c-.669-.122-.837-.426-.882-1.643-.046-1.065.213-1.552.928-1.7.411-.091.533-.046.837.289a1.418,1.418,0,0,1,.35.761c0,.274.122.365.73.517,1.674.441,3.378-.472,3.378-1.8A2.283,2.283,0,0,0,90.2-297.2a7,7,0,0,0-2.693-.472c-1.354-.107-1.993-.32-2.419-.867-1.065-1.369.517-4.2,3-5.355a4.173,4.173,0,0,1,3.012-.289c.213.122.365.061.7-.274C92.281-304.943,92.905-304.973,93.24-304.517Zm-50.846,2.054c.152.441.046.761-.958,2.891-.5,1.035-1.05,2.328-1.232,2.875a6.141,6.141,0,0,1-.5,1.172c-.091.107-.122.2-.076.2a13.858,13.858,0,0,1-1.2,3.012c-.563.943-1.567,1.324-1.963.73a2.169,2.169,0,0,1-.091-1.7,11.026,11.026,0,0,0,.7-1.506c.3-.761.669-1.582.791-1.856.213-.456.2-.517-.563-1.978-1.7-3.225-1.643-3.043-1.2-3.606.593-.745,1.156-.517,2.023.806.365.548.806,1.156.974,1.354l.32.35.183-.35a1.858,1.858,0,0,1,.274-.426,6.785,6.785,0,0,0,.517-.73C41.268-302.584,42.181-303.147,42.394-302.463Zm16.1.274c.061,0,.228.259.35.548.228.548.213,1.9-.03,6.846-.046,1-.106,2.176-.122,2.617-.046.958-.38,1.415-1.065,1.415-.624,0-.715-.091-1.217-1.065-.243-.456-.624-1.126-.867-1.491a4.721,4.721,0,0,1-.441-.745.727.727,0,0,0-.213-.335,11.651,11.651,0,0,1-.822-1.43,4.134,4.134,0,0,0-.669-1.065,9.114,9.114,0,0,0-.015,1.263c.152,4.138.091,4.64-.639,4.945-.806.335-1.369-.167-1.521-1.339a40.647,40.647,0,0,1,.152-7.212,3.768,3.768,0,0,0,.061-.624,1.539,1.539,0,0,1,.456-.791c.746-.746,1.4-.4,2.221,1.171a21.391,21.391,0,0,0,2.221,3.362.277.277,0,0,1,.137.259.554.554,0,0,0,.2.35c.137.122.2-.274.228-1.917C57-302.052,57.121-302.417,58.491-302.189Zm-8.49.882c.152.5.152.669.015,2.252-.3,3.545-.365,4.5-.38,6.436-.015,1.278-.046,1.445-.38,1.78-.761.761-1.567.2-2.313-1.582a40.276,40.276,0,0,0-2.3-4.519,6.077,6.077,0,0,0-.122.943,25.949,25.949,0,0,1-.38,3.058.781.781,0,0,0-.061.152,1,1,0,0,1-1.08.746c-.837-.015-1.141-.593-.974-1.871A26.247,26.247,0,0,1,42.47-297c.076-.289.167-.867.228-1.278a4.89,4.89,0,0,1,.152-.852,5.537,5.537,0,0,0,.152-.761c.213-1.415,1-2.084,1.6-1.339a5.159,5.159,0,0,1,.974,1.567c.243.5.7,1.324,1,1.826.3.517.609,1.035.669,1.141.061.122.2.4.319.609.213.38.228.365.243-.3a30.852,30.852,0,0,1,.456-4.853,2.044,2.044,0,0,1,.487-.654c.289-.213.38-.228.73-.046A1.18,1.18,0,0,1,50-301.306Zm25.484-.654c.441.152.609.35.609.791,0,.5-.5.837-1.43.928l-.867.091.091,1.841c.046,1.019.122,2.176.152,2.6.046.411.106,1.278.152,1.9.091,1.384.183,1.674.472,1.674a1.286,1.286,0,0,1,.578.35.773.773,0,0,1-.152,1.324,21.374,21.374,0,0,1-5.005.122.752.752,0,0,1-.289-1.156c.289-.441.806-.639,1.674-.639h.669l-.091-1.035c-.061-.563-.122-2.343-.122-3.94-.015-1.613-.046-2.936-.091-2.952-.046,0-.274-.03-.517-.061-.563-.076-.974-.456-.928-.882.015-.183.046-.411.061-.5.015-.167.152-.228.989-.5A18.968,18.968,0,0,1,75.485-301.961Zm-6.5.167c.852.335.076,1.491-1.141,1.674a10.133,10.133,0,0,0-1.065.213,1.47,1.47,0,0,1-.578.076c0-.046-.137,0-.3.091-.274.152-.3.319-.3,1.8,0,.9,0,1.734-.015,1.856,0,.122,0,.472.015.761a43.4,43.4,0,0,1-.213,4.336c-.03.167-.076.35-.076.411a1.157,1.157,0,0,1-.456.335,1.107,1.107,0,0,1-1.491-.441c-.243-.73-.243-.563-.137-2.586.046-.837.122-2.419.167-3.514s.107-2.145.152-2.328c.061-.335.03-.335-1.035-.243-1.369.106-1.887,0-2.039-.426-.243-.73.152-1.248,1.065-1.415a20.32,20.32,0,0,1,2.236-.289c.548-.061,1.674-.183,2.51-.3A6.288,6.288,0,0,1,68.988-301.793Zm9.737.426a9.706,9.706,0,0,1,.319,2.632c.061,1.187.122,2.282.152,2.434.046.259.243,2.176.3,3.058.03.456.319.73.578.563a1.107,1.107,0,0,1,.35-.152c.091-.015.365-.076.609-.122,2.115-.426,3.1-.365,3.423.213.122.228.076.365-.183.669-.274.319-.913.548-3.18,1.171-3.089.867-3.53.882-3.8.167a1.87,1.87,0,0,1-.122-1.1c0-.122-.046-.913-.122-1.75-.061-.837-.122-2.83-.122-4.412,0-2.586.03-2.936.3-3.317.289-.456.776-.73,1.1-.609A1.473,1.473,0,0,1,78.726-301.367Z"
                transform="translate(0 -288.251)"
        />
    </g>
</svg>